<?xml version="1.0" encoding="utf-8"?>
<!-- Generator: Adobe Illustrator 27.3.1, SVG Export Plug-In . SVG Version: 6.00 Build 0)  -->
<svg version="1.1" id="Layer_1" xmlns="http://www.w3.org/2000/svg" xmlns:xlink="http://www.w3.org/1999/xlink" x="0px" y="0px"
	 viewBox="0 0 2144 1029.2" style="enable-background:new 0 0 2144 1029.2;" xml:space="preserve">
<style type="text/css">
	.st0{fill:#F1592B;}
	.st1{fill:#727373;}
	.st2{font-family:'Calibri';}
	.st3{font-size:135px;}
	.st4{fill:none;}
</style>
<g>
	<path class="st0" d="M714.1,441.2c-5.1,0-55-1.5-55-33.4V73.3h149.1c82.3,0,160,27.3,160,126.6v114.7c0,99.3-77.7,126.6-160,126.6
		H714.1L714.1,441.2z M728,124.3v266h80.2c50.9,0,91.1-19.6,91.1-80.8v-105c0-61.2-40.1-80.3-91.1-80.3L728,124.3L728,124.3z"/>
	<path class="st0" d="M1064.4,441.2c-5.1,0-55-1.5-55-33.4V73.3h149.2c82.3,0,160,27.3,160,126.6v114.7c0,99.3-77.7,126.6-160,126.6
		H1064.4L1064.4,441.2z M1078.3,124.3v266h80.3c50.9,0,91.1-19.6,91.1-80.8v-105c0-61.2-40.1-80.3-91.1-80.3L1078.3,124.3
		L1078.3,124.3z"/>
	<path class="st0" d="M1603.6,338.8c0,0-6.2-29.3-6.2-54.5v-211c0,0,68.9,0,68.9,33.4v339.6c-77.7,0-93.6-37-93.6-37L1423,171.6
		c0,0,5.7,29.3,5.7,54.5v220.2c0,0-68.9,0-68.9-33.4V73.3c41.2,0,75.1,0,93.1,29.3L1603.6,338.8z"/>
	<path class="st0" d="M1844.9,67.2c74.1,0,135.3,14.4,135.3,63.8c0,13.9-5.7,31.4-17,52c0-51.4-60.7-62.3-117.8-62.3
		c-44.8,0-77.2,12.9-77.2,47.8c0,84.9,224.3,1.5,224.3,164.6c0,76.1-63.8,113.7-151.3,113.7c-64.3,0-135.8-15.9-135.8-64.3
		c0-13.4,5.7-29.3,18.5-47.8c0,49.9,67.4,59.2,117.3,59.2c53.5,0,79.7-21.1,79.7-56.1c0-95.2-223.8-13.4-223.8-161.5
		C1697.2,92.9,1763.6,67.2,1844.9,67.2z"/>
</g>
<g>
	<path class="st1" d="M789.8,581.4c0,23.4-15.2,37.5-47.6,37.5c-32.6,0-47.6-14.1-47.6-37.5v-41.9c0-23.4,15-37.5,47.6-37.5
		c32.4,0,47.6,14.1,47.6,37.5V581.4z M768.7,541.6c0-15-4.3-23.9-26.6-23.9c-22,0-26.2,8.9-26.2,23.9v37.8c0,15,4.3,23.9,26.2,23.9
		c22.3,0,26.6-8.9,26.6-23.9V541.6z"/>
	<path class="st1" d="M829.4,590.4c0,8.4,4,13.1,15.2,13.1c8.1,0,15-2.2,15-2.2v-66.9c0,0,20.5,0,20.5,10.3v74.1
		c0,0-6.2-3.3-14.2-3.3c-7.7,0-15,3.3-23.5,3.3c-16.3,0-33.5-5.5-33.5-26.1v-58.3c0,0,20.5,0.3,20.5,10.3V590.4z"/>
	<path class="st1" d="M899,607.8v-74c4.7,2.4,8.7,3.2,12.2,3.2c7,0,13.9-3.3,23.2-3.3c11.2,0,21.3,4.1,21.3,14.9
		c0,7.7-6,13.6-7.3,15.5c0-10-7.9-14.4-17.1-14.4c-5.4,0-10.1,1.4-11.9,1.7v66.7C919.6,618.1,899,618.1,899,607.8z"/>
	<path class="st1" d="M1078.1,548.7l13.4,41.6c3.8,11.9,6.6,21.3,9.8,26.1c0,0-5.2,1.7-8.9,1.7c-14.9,0-18.5-12.8-22.4-24.7
		l-2.7-8.4h-39.8l-2.7,8.4c-4,11.9-7.6,24.7-22.4,24.7c-3.6,0-8.9-1.7-8.9-1.7c3.2-4.7,6-14.2,9.8-26.1l13.4-41.6
		c10.6-32.6,28.3-46.8,30.7-48.4C1049.8,501.9,1067.5,516.1,1078.1,548.7z M1037,552.8l-4.9,16.4h30.7l-4.9-16.4
		c-4-13.3-10.4-26.7-10.4-26.7C1044.9,530,1041,539.5,1037,552.8z"/>
	<path class="st1" d="M1110.8,534.5c1.3,0,20.5,0.2,20.5,10.3v73.3c0,0-20.5,0-20.5-10.3V534.5z M1111.3,505.2h13.9
		c2.5,0,5.8,2.4,5.8,4.6v13.1h-13.9c-3.3,0-5.8-2.4-5.8-4.6V505.2z"/>
	<path class="st1" d="M1201.1,562.1c0-8.4-4-13.1-15.2-13.1c-8.1,0-15,2.2-15,2.2v66.9c0,0-20.5,0-20.5-10.3v-74.1
		c0,0,6.2,3.3,14.2,3.3c7.7,0,15-3.3,23.5-3.3c9,0,18.5,1.7,25,6.8c0,0,7.3-6.8,27-6.8c17.4,0,32.2,8.9,32.2,27.3v57.1
		c0,0-20.5-0.3-20.5-10.3v-44.4c0-10.3-5.5-14.7-13.1-14.7c-8.4,0-16.8,3.6-17.1,11.1v58.3c0,0-20.5-0.3-20.5-10.3L1201.1,562.1
		L1201.1,562.1z"/>
	<path class="st1" d="M1337.1,502.4c0,0,21.2,0,21.2,10.3v105.9c0,0-21.2,0-21.2-10.3V502.4z"/>
	<path class="st1" d="M1374.1,559.9c0-17.5,12.5-26.2,34.9-26.2c19.1,0,32.1,5.4,32.1,16c0,4.1-1.7,8.9-6,14.2
		c0-9.8-11.2-14.5-24.5-14.5c-11.1,0-16.3,2.8-16.3,9.6c0,15.3,51.1-3.2,51.1,34.5c0,15.6-12,25.4-36.4,25.4
		c-19.9,0-33.7-6-33.7-16.9c0-4.4,2.1-9.2,7.4-14.9c0.3,13.4,14.4,16.4,26.2,16.4c6.6,0,16.3-2.4,16.3-10.9
		C1425.3,574.9,1374.1,594.2,1374.1,559.9z"/>
	<path class="st1" d="M1546.1,502.1c22.8,0,41.6,4.4,41.6,19.6c0,4.3-1.7,9.6-5.2,16c0-15.8-18.7-19.1-36.2-19.1
		c-13.8,0-23.7,4-23.7,14.7c0,26.1,68.9,0.5,68.9,50.6c0,23.4-19.6,34.9-46.5,34.9c-19.8,0-41.7-4.9-41.7-19.8c0-4.1,1.7-9,5.7-14.7
		c0,15.3,20.7,18.2,36,18.2c16.4,0,24.5-6.5,24.5-17.2c0-29.2-68.8-4.1-68.8-49.6C1500.7,510,1521.1,502.1,1546.1,502.1z"/>
	<path class="st1" d="M1605.7,591.1v-29.6c0-17.4,12.3-27.8,34.9-27.8c22.6,0,33.3,10.4,33.3,26.2c0,13.4-7.9,25.9-32.9,25.9
		c-5.1,0-10.1-0.9-14.9-2.8v5.7c0,9.5,5.7,14.4,17.5,14.4c15.6,0,26.2-6.6,26.4-16.1c3.3,4.7,4.9,9,4.9,13c0,11.4-13.1,19-31.3,19
		C1619.7,618.9,1605.7,608.4,1605.7,591.1z M1626.2,568.5c1.6,0.3,7.1,1.4,11.9,1.4c11.4,0,15.3-3.6,15.3-10
		c0-6.6-3.6-11.2-13.4-11.2c-10.7,0-13.8,5.5-13.8,15.2V568.5z"/>
	<path class="st1" d="M1690.8,607.8v-74c4.7,2.4,8.7,3.2,12.2,3.2c7,0,13.9-3.3,23.2-3.3c11.2,0,21.3,4.1,21.3,14.9
		c0,7.7-6,13.6-7.3,15.5c0-10-7.9-14.4-17.1-14.4c-5.4,0-10.1,1.4-11.9,1.7v66.7C1711.4,618.1,1690.8,618.1,1690.8,607.8z"/>
	<path class="st1" d="M1823.4,565.6c-3.8,36.8-34.5,54.7-34.8,54.8c-0.3-0.2-31.1-18-34.8-54.8l-3.3-31.1c0,0,19.9,0,21.2,10l3.2,24
		c2.7,22.9,13.8,31.1,13.8,31.1s11.1-9.2,13.8-31.1l3.2-24c1.1-10,21.3-10,21.3-10L1823.4,565.6z"/>
	<path class="st1" d="M1839.6,534.5c1.3,0,20.5,0.2,20.5,10.3v73.3c0,0-20.5,0-20.5-10.3V534.5z M1840,505.2h13.9
		c2.5,0,5.8,2.4,5.8,4.6v13.1h-13.9c-3.3,0-5.8-2.4-5.8-4.6V505.2z"/>
	<path class="st1" d="M1945.3,600.1c0,11.5-13.3,18.8-31.3,18.8c-22.4,0-36.5-10.3-36.5-27.8v-29.6c0-17.2,13.1-27.8,35.7-27.8
		c12.3,0,30,4.3,30,18.2c0,4.3-1.9,9.5-6.2,15.6c0-12.8-10.3-18.3-20.2-18.3c-11.4,0-19,3.2-19,16.4v21.3c0,11.4,5.8,16.3,18.5,16.3
		c13.8,0,23.9-6.8,24-16.1C1943.7,592,1945.3,596.3,1945.3,600.1z"/>
	<path class="st1" d="M1957.9,591.1v-29.6c0-17.4,12.3-27.8,34.9-27.8s33.3,10.4,33.3,26.2c0,13.4-7.9,25.9-32.9,25.9
		c-5.1,0-10.1-0.9-14.9-2.8v5.7c0,9.5,5.7,14.4,17.5,14.4c15.6,0,26.2-6.6,26.4-16.1c3.3,4.7,4.9,9,4.9,13c0,11.4-13.1,19-31.3,19
		C1972,618.9,1957.9,608.4,1957.9,591.1z M1978.5,568.5c1.6,0.3,7.1,1.4,11.9,1.4c11.4,0,15.3-3.6,15.3-10c0-6.6-3.6-11.2-13.4-11.2
		c-10.7,0-13.8,5.5-13.8,15.2V568.5z"/>
</g>
<path class="st0" d="M226.8,687.6c0,0,448.4,181.6,1809.1-20.2C2035.9,667.4,977.8,940.9,226.8,687.6z"/>
<path class="st1" d="M588,355.8c0-20.1-2.4-39.7-6.8-58.5c-0.1-0.5-0.2-1.1-0.4-1.6c-27.1-112-128.1-195.4-248.3-195.4
	c-23,0-45.3,3.1-66.6,8.8c-1.1,0.2-2.1,0.5-3.1,0.9C155.6,140.4,76.9,239,76.9,355.8c0,140.9,114.6,255.6,255.6,255.6
	c18.5,0,36.6-2,54-5.8c0.5-0.1,1-0.2,1.4-0.3C502.2,579.9,588,477.7,588,355.8z M397.9,571.4c-3.1-18-11.7-36.7-24.9-55
	c32.2-22.9,56.2-49.7,73.8-75.7l71.8,41.8C490,524.5,447.5,556.3,397.9,571.4z M204.4,439.9c17.6,4.7,35.7,11.7,53.5,20.8l-40,69
	C208.9,508.8,203,477,204.4,439.9z M234.8,317.3l79.4,46.2l-41.2,71c-20.9-10.7-43.4-19.6-66-25.2c2.5-17.8,6.6-36.3,12.8-55.2
	C223.4,343.2,228.3,330.7,234.8,317.3z M302.4,228.6c11.5,11.7,24.8,23.1,39.9,33.9c7,5,14.4,9.9,22.1,14.5l-35,60.3l-80-46.5
	C262.5,269.9,279.7,248.4,302.4,228.6z M436.4,399.6l-80.8-47l35.4-61c23.8,11.8,49.6,21.2,75.4,26.7c-3.3,15.4-7.9,31.1-14,47
	C448.3,375.6,443.1,387.3,436.4,399.6z M406.1,265.5l52.3-90.2c11.6,22.6,18.6,64.3,12.9,113.1C449.9,283.8,427.8,276.1,406.1,265.5
	z M379.5,250.9c-6.6-4.1-13.2-8.4-19.6-13c-12.5-9-23.7-18.4-33.4-28c27.5-19,61.5-35.2,103.3-45.7L379.5,250.9z M284.1,475.8
	c3.4,2.2,6.9,4.5,10.2,6.9c12.1,8.5,23,17.5,32.4,26.6c-22.5,12.1-48.6,22.1-78.8,28.8L284.1,475.8z M311.7,457.9
	c-4-2.8-8.2-5.6-12.4-8.3l41.1-70.8l80.1,46.6c-16.1,23.3-37.9,47.2-67.2,67.6C341.5,480.8,327.5,469,311.7,457.9z M533.9,456.4
	l-71.4-41.5c7.6-13.9,13.5-27.1,18-38.7c6.9-17.8,12.1-35.7,15.8-53.3c6,0.5,12,0.9,18,0.9c13.9,0,27.4-1.5,40.4-4.7
	c2,12,3.1,24.3,3.1,36.9C557.7,392,549.1,426.1,533.9,456.4z M547.7,289.4c-14,3.5-29.8,4.5-46.5,3.3c3.9-32.4,2.8-62.7-2.1-88.3
	C521.1,228.6,537.9,257.5,547.7,289.4z M400.5,141.1c-37.2,11.6-68.2,27.5-94,45.8c-12.8-17.3-20.5-34.7-22.5-51
	c15.6-3.4,31.8-5.3,48.4-5.3C356.2,130.5,379,134.2,400.5,141.1z M254.6,144.4c3.4,20.3,13,41,28,61.2
	c-25.5,22.2-44.8,46.5-59.4,70.1l-77.8-45.3C171.7,191.3,209.8,160.9,254.6,144.4z M130.3,256.5l78.3,45.6
	c-7.6,15.5-13.3,30-17.5,42.7c-6.6,19.9-11.1,39.8-13.8,59.1c-22.3-2.6-44.1-1.6-63.9,4.4c-4-16.8-6.2-34.4-6.2-52.4
	C107.1,320.2,115.5,286.5,130.3,256.5z M122.4,437.2c15.1-4.4,32.8-5.3,51.9-3.1c-1.8,34.5,2,66,9.8,91.1
	C157,501.4,135.7,471.3,122.4,437.2z M255.3,567.5c35.7-7.9,66.1-20.1,92.1-34.8c11.6,15.6,18.8,31.1,20.9,45.5
	c-11.7,1.9-23.7,2.9-35.9,2.9C305.3,581.1,279.4,576.3,255.3,567.5z"/>
<g>
	<g>
		<path class="st0" d="M2051,36.8c16.8,0,30.4,13.7,30.4,30.4c0,16.8-13.7,30.4-30.4,30.4s-30.4-13.7-30.4-30.4
			S2034.3,36.8,2051,36.8 M2051,31.8c-19.6,0-35.4,15.9-35.4,35.4c0,19.6,15.9,35.4,35.4,35.4c19.6,0,35.4-15.9,35.4-35.4
			C2086.5,47.7,2070.6,31.8,2051,31.8L2051,31.8z"/>
	</g>
	<g>
		<path class="st0" d="M2044.5,71.2v16.5h-6.8V46.3h11.7c5.3,0,9.3,1,11.9,3c2.6,2,3.8,5,3.8,9.1c0,5.2-2.7,8.8-8,11l11.7,18.3h-7.7
			l-9.9-16.5H2044.5z M2044.5,65.6h4.7c3.2,0,5.4-0.6,6.8-1.8c1.4-1.2,2.1-2.9,2.1-5.2c0-2.3-0.8-4-2.3-5s-3.8-1.5-6.9-1.5h-4.5
			L2044.5,65.6L2044.5,65.6z"/>
	</g>
</g>
<text transform="matrix(1 0 0 1 1536.5153 945.4515)" class="st1 st2 st3">EST 1999</text>
<line class="st4" x1="2027.1" y1="569.9" x2="2027.1" y2="1000.2"/>
<line class="st4" x1="2026.1" y1="559.9" x2="2027.1" y2="1029.2"/>
<line class="st4" x1="2024.4" y1="577.4" x2="2027.1" y2="1016.2"/>
</svg>
